<svg viewBox="0 0 420 480" xmlns="http://www.w3.org/2000/svg"><g transform="translate(60.0,10)"><g id="icon3-reversed"><path d="M 88.0,190.0 Q 67.4,161.9 22.2,152.0 Q 53.4,186.2 88.0,190.0 Z" fill="#CFE9DD"/><path d="M 88.0,190.0 Q 76.6,147.8 28.9,114.4 Q 49.8,168.7 88.0,190.0 Z" fill="#CFE9DD"/><path d="M 88.0,190.0 Q 94.5,141.6 61.9,85.2 Q 59.6,150.3 88.0,190.0 Z" fill="#CFE9DD"/><path d="M 88.0,190.0 Q 112.4,152.2 108.8,92.2 Q 81.1,145.6 88.0,190.0 Z" fill="#CFE9DD"/><path d="M 88.0,190.0 Q 119.3,169.1 137.4,122.0 Q 98.2,153.8 88.0,190.0 Z" fill="#CFE9DD"/><path d="M 88.0,190.0 Q 83.7,162.8 58.9,135.3 Q 67.8,171.2 88.0,190.0 Z" fill="#FFFFFF" opacity="0.9"/><path d="M 88.0,190.0 Q 98.0,161.4 88.0,122.0 Q 78.0,161.4 88.0,190.0 Z" fill="#FFFFFF" opacity="0.9"/><path d="M 88.0,190.0 Q 106.1,173.0 114.3,140.6 Q 92.0,165.5 88.0,190.0 Z" fill="#FFFFFF" opacity="0.9"/>
    <rect x="104" y="112" width="96" height="78" rx="4" fill="none" stroke="#FFFFFF" stroke-width="4"/>
    <line x1="104" y1="151" x2="200" y2="151" stroke="#FFFFFF" stroke-width="2.4"/>
    <line x1="152" y1="112" x2="152" y2="190" stroke="#FFFFFF" stroke-width="2.4"/>
    <rect x="192" y="96" width="8" height="94" fill="#FFFFFF"/>
    <line x1="70" y1="190" x2="230" y2="190" stroke="#FFFFFF" stroke-width="4" stroke-linecap="round"/>
    
    <circle cx="196" cy="90" r="11" fill="none" stroke="#E9C98C" stroke-width="3.2"/>
    <line x1="184" y1="90" x2="208" y2="90" stroke="#E9C98C" stroke-width="3.2"/>
    </g></g><g transform="translate(60.0,260)">
    <text x="150" y="0" text-anchor="middle" font-family="Georgia, 'Playfair Display', 'Times New Roman', serif" font-size="40" letter-spacing="3" fill="#FFFFFF">COASTLINE</text>
    <text x="150" y="30" text-anchor="middle" font-family="'Century Gothic', 'Futura', 'Poppins', 'Montserrat', Helvetica, Arial, sans-serif" font-size="16" letter-spacing="8" fill="#E9C98C">C O N D O S</text>
    </g></svg>